<svg xmlns:rdf="http://www.w3.org/1999/02/22-rdf-syntax-ns#" xmlns="http://www.w3.org/2000/svg" xml:space="preserve" viewBox="0 0 360 50" height="50" width="360" version="1.1" y="0px" x="0px" xmlns:cc="http://creativecommons.org/ns#" xmlns:dc="http://purl.org/dc/elements/1.1/"><style type="text/css">
	.st0{fill:#24282A;}
	.st1{fill:#6A6E71;}
	.st2{fill:#9DA0A4;}
	.st3{fill:#00A4BB;}
</style><g transform="matrix(1.083 0 0 1.0813 -126.99 -281.52)"><rect class="st0" height="28.294" width="7.7207" y="278.29" x="280.75" fill="#24282a"/><rect class="st1" height="7.7265" width="28.42" y="270.56" x="270.4" fill="#6a6e71"/><rect class="st1" height="7.7256" width="28.429" y="298.86" x="387.61" fill="#6a6e71"/><rect class="st0" height="28.295" width="7.7246" y="270.56" x="387.61" fill="#24282a"/><rect class="st0" height="28.294" width="7.7256" y="278.29" x="346.07" fill="#24282a"/><path fill="#6a6e71" class="st1" d="m360.93 270.56h-14.857v7.7265h14.857v-0.00092c5.6797 0 10.284 4.6045 10.284 10.285 0 5.6797-4.6045 10.285-10.284 10.285v-0.001h-7.1328v7.7256h7.1328c9.9463 0 18.01-8.0635 18.01-18.01 0-9.9463-8.0635-18.011-18.01-18.011z"/><polygon points="206.66 290.13 209.88 297.86 195.62 297.86 198.84 290.13" fill="#9da0a4" class="st2"/><polygon points="183.63 306.58 191.99 306.58 202.75 280.73 198.57 270.67" fill="#24282a" class="st0"/><polygon points="206.89 270.56 198.61 270.56 198.57 270.67 213.51 306.58 221.87 306.58" fill="#6a6e71" class="st1"/><polygon points="429.53 306.58 449.67 270.56 440.82 270.56 427.6 294.22 428.16 295.22 428.16 306.58" fill="#6a6e71" class="st1"/><polygon points="435.89 306.58 435.89 295.22 429.53 306.58" fill="#9da0a4" class="st2"/><polygon points="432.02 286.3 428.16 279.39 423.22 270.56 414.37 270.56 427.6 294.22" fill="#24282a" class="st0"/><polygon points="261.64 303.96 261.64 270.56 253.92 270.56 253.92 293.88" fill="#6a6e71" class="st1"/><polygon points="261.64 306.58 261.64 303.96 253.92 293.88 236.06 270.56 236.06 283.27 253.92 306.58" fill="#9da0a4" class="st2"/><rect class="st0" height="36.02" width="7.7246" y="270.56" x="228.34" fill="#24282a"/><rect class="st1" height="7.7265" width="28.429" y="270.56" x="307.33" fill="#6a6e71"/><rect class="st2" height="7.7256" width="18.806" y="284.71" x="315.06" fill="#9da0a4"/><polygon points="335.76 306.58 335.76 298.86 315.06 298.86 315.06 278.29 307.33 278.29 307.33 306.58" fill="#24282a" class="st0"/><polygon points="141.81 293.54 128 260.35 117.26 260.35 136.49 306.58 147.12 306.58 151.81 295.31 156.5 306.58 167.12 306.58 186.36 260.35 175.62 260.35 161.81 293.54 157.18 282.41 166.35 260.35 155.61 260.35 151.81 269.5 148 260.35 137.26 260.35 146.44 282.41" fill="#00a4bb" class="st3"/></g></svg>
