<svg xmlns:rdf="http://www.w3.org/1999/02/22-rdf-syntax-ns#" xmlns="http://www.w3.org/2000/svg" xml:space="preserve" viewBox="0 0 75 75" height="75" width="75" version="1.1" y="0px" x="0px" xmlns:cc="http://creativecommons.org/ns#" xmlns:dc="http://purl.org/dc/elements/1.1/"><style type="text/css">
	.st0{fill:#00A4BB;}
	.st1{fill:#FFFFFF;}
</style><g transform="matrix(1.0058 0 0 1.0058 -247.62 -247.62)"><path fill="#00a4bb" class="st0" d="m312.25 301.47h-10.622l-4.69-11.269-4.6889 11.269h-10.623l-19.239-46.239h10.741l13.809 33.191 4.6308-11.131-9.1776-22.06h10.74l3.8076 9.1521 3.8076-9.1521h10.74l-9.1774 22.061 4.6305 11.13 13.809-33.191v-5.1279c-0.008-2.1661-1.7598-3.918-3.9239-3.9258h-66.715c-2.1694 0.008-3.9258 1.7676-3.9258 3.9394v9.2774 5.6562 51.753 0.0156h0.002c0.008 2.166 1.7676 3.9238 3.939 3.9238h66.687c2.1699 0 3.9298-1.7578 3.9375-3.9238v-35.77l-8.4971 20.421z"/><polygon points="281.57 301.34 281.63 301.47 292.25 301.47 296.94 290.21 301.63 301.47 312.25 301.47 320.75 281.05 320.75 256.41 320.75 255.24 306.94 288.43 302.31 277.3 311.49 255.24 300.75 255.24 296.94 264.39 293.13 255.24 282.39 255.24 291.57 277.3 286.94 288.43 273.13 255.24 262.39 255.24" fill="#fff" class="st1"/></g></svg>
